<svg width="100" height="100" viewBox="0 0 100 100" fill="none" xmlns="http://www.w3.org/2000/svg">
<path d="M50.4187 51.8608C61.7021 51.8608 70.8491 42.7138 70.8491 31.4304C70.8491 20.147 61.7021 11 50.4187 11C39.1353 11 29.9883 20.147 29.9883 31.4304C29.9883 42.7138 39.1353 51.8608 50.4187 51.8608Z" fill="#B0B6B7"/>
<path d="M84.9991 78.5C84.9991 80.2787 84.9982 86.5205 84.9982 89.5205C75.1543 89.5205 63.4686 89.5 50.4207 89.5C37.3729 89.5 31.4982 89.5 16 89.5C15.9994 88.5205 16.0003 80 16.0003 78.4757C16.0003 69.9819 18.9575 59.9501 26.992 54.6822C30.6232 52.3014 35.3576 52.4731 38.8624 55.0362C41.5531 57.004 45.0255 58.2255 50.4216 58.2255C55.8178 58.2255 59.2901 57.004 61.9808 55.0362C65.4856 52.4731 70.2202 52.3014 73.8512 54.6822C81.8858 59.9501 84.9991 70.0062 84.9991 78.5Z" fill="#B0B6B7"/>
</svg>
