<svg width="1183" height="1308" xmlns="http://www.w3.org/2000/svg" xmlns:xlink="http://www.w3.org/1999/xlink" xml:space="preserve" overflow="hidden"><defs><clipPath id="clip0"><rect x="3095" y="608" width="1183" height="1308"/></clipPath><clipPath id="clip1"><rect x="3274" y="929" width="824" height="541"/></clipPath><clipPath id="clip2"><rect x="3274" y="929" width="824" height="541"/></clipPath><clipPath id="clip3"><rect x="3274" y="597" width="824" height="873"/></clipPath></defs><g clip-path="url(#clip0)" transform="translate(-3095 -608)"><path d="M0 149 128.5 0 257 149Z" fill="#FFFFFF" fill-rule="evenodd" transform="matrix(1 0 0 -1 3558 1916)"/><path d="M3109 1199.5C3109 880.555 3367.56 622 3686.5 622 4005.44 622 4264 880.555 4264 1199.5 4264 1518.44 4005.44 1777 3686.5 1777 3367.56 1777 3109 1518.44 3109 1199.5Z" stroke="#FFFFFF" stroke-width="27.5" stroke-miterlimit="8" fill="#FFFFFF" fill-rule="evenodd"/><g clip-path="url(#clip1)"><g clip-path="url(#clip2)"><g clip-path="url(#clip3)"><path d="M175.527 548.726C217.986 548.726 252.399 514.311 252.399 471.86 252.399 429.401 217.986 394.98 175.527 394.98 133.076 394.98 98.6589 429.401 98.6589 471.86 98.6589 514.311 133.076 548.726 175.527 548.726Z" fill="#262626" transform="matrix(1 0 0 1.00015 3275 598.066)"/><path d="M341.515 450.057 648.771 450.057C693.849 450.057 720.404 479.071 720.404 517.915L720.404 629.136 341.502 629.136 341.502 450.057Z" fill="#262626" transform="matrix(1 0 0 1.00015 3275 598.066)"/><path d="M257.872 489.863 257.872 556.569 139.735 556.569C82.7012 556.773 82.6088 630.088 139.735 630.088L294.612 630.088C317.229 630.088 331.389 611.833 331.389 591.182L331.389 489.863C331.389 434.359 257.872 434.359 257.872 489.863Z" fill="#262626" transform="matrix(1 0 0 1.00015 3275 598.066)"/><path d="M83.9815 385.982C83.9815 325.449 0 325.449 0 385.982L0 871.38 85.8479 871.38 85.8479 746.024 739.024 746.024 739.024 870.438 823.002 870.438 823.002 495.529C823.002 431.647 738.092 431.647 738.092 495.529L738.092 645.17 83.9913 645.17 83.9913 385.98Z" fill="#262626" transform="matrix(1 0 0 1.00015 3275 598.066)"/></g></g></g></g></svg>