<svg width="34" height="40" viewBox="0 0 34 40" fill="none" xmlns="http://www.w3.org/2000/svg">
<g clip-path="url(#clip0_297_156948)">
<mask id="mask0_297_156948" style="mask-type:luminance" maskUnits="userSpaceOnUse" x="0" y="0" width="34" height="40">
<path d="M0 0.5H34V39.5H0V0.5Z" fill="white"/>
</mask>
<g mask="url(#mask0_297_156948)">
<mask id="mask1_297_156948" style="mask-type:luminance" maskUnits="userSpaceOnUse" x="2" y="0" width="29" height="27">
<path d="M2.92969 0.479126H30.6372V26.0056H2.92969V0.479126Z" fill="white"/>
</mask>
<g mask="url(#mask1_297_156948)">
<mask id="mask2_297_156948" style="mask-type:luminance" maskUnits="userSpaceOnUse" x="2" y="0" width="29" height="27">
<path d="M2.92969 0.479126H30.6372V26.0056H2.92969V0.479126Z" fill="white"/>
</mask>
<g mask="url(#mask2_297_156948)">
<mask id="mask3_297_156948" style="mask-type:luminance" maskUnits="userSpaceOnUse" x="-3" y="-2" width="41" height="42">
<path d="M-2.24902 -1.0249H37.4245V39.1658H-2.24902V-1.0249Z" fill="white"/>
</mask>
<g mask="url(#mask3_297_156948)">
<path d="M7.7989 4.51912C8.16471 3.92827 8.61762 3.40212 9.1402 2.9553V2.95237C10.046 2.17045 11.158 1.62665 12.3832 1.415C12.7606 1.3474 13.1467 1.31506 13.5416 1.31506C14.668 1.31506 15.7336 1.59431 16.6713 2.0852C16.8045 2.16927 16.9411 2.24773 17.0807 2.32037C17.6798 2.63727 18.3229 2.86027 18.9881 2.98176H18.991C19.1342 3.00949 19.2786 3.03107 19.4236 3.04644C19.4247 3.04651 19.4258 3.0468 19.4268 3.0473C19.4278 3.04781 19.4287 3.04851 19.4294 3.04936C19.9607 3.13756 20.4775 3.2669 20.9799 3.43151C20.9817 3.43151 20.9836 3.43247 20.9857 3.43445C21.091 3.47396 21.1975 3.51023 21.305 3.5432C21.3087 3.54517 21.3137 3.54711 21.3195 3.54909C21.5025 3.61669 21.6824 3.68723 21.8594 3.76367C23.3459 4.40154 24.6641 5.36569 25.7237 6.56502C25.747 6.59245 25.7712 6.6199 25.7963 6.64733C25.8892 6.75706 25.9812 6.86779 26.0722 6.97948C26.2612 7.21577 26.4404 7.45996 26.6092 7.71142C27.1383 8.49558 27.5638 9.34644 27.875 10.2423C27.8771 10.2463 27.8781 10.2502 27.8781 10.2541C28.0572 10.827 28.2074 11.4088 28.328 11.9972C28.569 13.1701 28.6939 14.3871 28.6939 15.6334C28.6939 15.9607 28.6852 16.286 28.6677 16.6093C28.6448 17.0546 28.6051 17.4988 28.5486 17.9409C28.2177 19.6987 27.2276 21.2214 25.8485 22.2297C25.413 22.5029 24.9659 22.7588 24.5073 22.9938C23.494 23.5142 22.4255 23.9376 21.3137 24.252C20.0217 24.6194 18.6716 24.84 17.281 24.8987C17.0352 24.9085 16.7884 24.9133 16.5407 24.9133C13.5096 24.9133 10.6557 24.1404 8.16471 22.7764C8.15113 22.7705 8.13857 22.7636 8.12695 22.7559C8.00652 22.6909 7.88746 22.6232 7.76987 22.5531C7.76405 22.551 7.7592 22.5491 7.75534 22.5472C6.11499 21.5477 4.92753 19.8663 4.57335 17.8909V17.8851C4.54232 17.6828 4.51521 17.4799 4.49205 17.2766C4.41076 16.5858 4.37012 15.8833 4.37012 15.1719C4.37012 12.153 5.07852 9.28995 6.41404 6.81488C6.56499 6.53856 6.87273 5.98888 7.03821 5.72137C7.22403 5.41861 7.61018 4.81894 7.7989 4.51912Z" fill="#CC0000"/>
</g>
</g>
</g>
<mask id="mask4_297_156948" style="mask-type:luminance" maskUnits="userSpaceOnUse" x="-1" y="24" width="13" height="12">
<path d="M-0.0205078 24.1256H11.6154V35.8653H-0.0205078V24.1256Z" fill="white"/>
</mask>
<g mask="url(#mask4_297_156948)">
<mask id="mask5_297_156948" style="mask-type:luminance" maskUnits="userSpaceOnUse" x="-1" y="24" width="13" height="12">
<path d="M-0.0205078 24.1256H11.6154V35.8653H-0.0205078V24.1256Z" fill="white"/>
</mask>
<g mask="url(#mask5_297_156948)">
<mask id="mask6_297_156948" style="mask-type:luminance" maskUnits="userSpaceOnUse" x="-3" y="-3" width="40" height="41">
<path d="M-2.80566 -2.48718H36.579V37.4319H-2.80566V-2.48718Z" fill="white"/>
</mask>
<g mask="url(#mask6_297_156948)">
<path d="M10.8759 27.4515C10.8759 27.7582 10.8269 28.0532 10.7347 28.3279V28.3308C10.6511 28.5237 10.5647 28.7107 10.4696 28.8946C8.94836 31.9214 6.07873 34.136 2.66458 34.7203H2.66169C2.56018 34.7378 2.45837 34.7534 2.35629 34.767C2.34283 34.7691 2.3294 34.7707 2.31595 34.7728H2.29002C1.55246 34.7728 0.956055 34.168 0.956055 33.4201C0.956055 33.4007 0.957002 33.3814 0.958921 33.3617C0.970453 33.2682 0.984855 33.1747 0.999276 33.0783C1.5755 29.5463 3.81703 26.5837 6.88258 25.0557C6.98247 25.005 7.08332 24.9564 7.18509 24.9097C7.18703 24.9097 7.18893 24.9086 7.19087 24.9068C7.49913 24.7839 7.83047 24.7168 8.17909 24.7168C9.66866 24.7168 10.8759 25.941 10.8759 27.4515Z" fill="#009900"/>
</g>
</g>
</g>
<mask id="mask7_297_156948" style="mask-type:luminance" maskUnits="userSpaceOnUse" x="8" y="26" width="14" height="14">
<path fill-rule="evenodd" clip-rule="evenodd" d="M8.58789 27.9301L20.0548 26.0098L21.9418 37.5612L10.4748 39.4816L8.58789 27.9301Z" fill="white"/>
</mask>
<g mask="url(#mask7_297_156948)">
<mask id="mask8_297_156948" style="mask-type:luminance" maskUnits="userSpaceOnUse" x="8" y="26" width="14" height="14">
<path fill-rule="evenodd" clip-rule="evenodd" d="M8.58789 27.9301L20.0548 26.0098L21.9418 37.5612L10.4748 39.4816L8.58789 27.9301Z" fill="white"/>
</mask>
<g mask="url(#mask8_297_156948)">
<mask id="mask9_297_156948" style="mask-type:luminance" maskUnits="userSpaceOnUse" x="1" y="-5" width="46" height="47">
<path fill-rule="evenodd" clip-rule="evenodd" d="M1.54395 2.16635L40.398 -4.34009L46.824 34.999L7.9697 41.5055L1.54395 2.16635Z" fill="white"/>
</mask>
<g mask="url(#mask9_297_156948)">
<path d="M19.8601 29.4105C19.9096 29.713 19.9087 30.0119 19.8619 30.2978L19.8623 30.3007C19.8109 30.5047 19.7557 30.7032 19.6915 30.9003C18.677 34.1354 16.2005 36.7927 12.924 37.9332L12.9212 37.9336C12.8238 37.9676 12.7258 37.9998 12.6272 38.0303C12.6143 38.0344 12.6013 38.0384 12.5884 38.0427L12.5855 38.0432L12.5627 38.047C11.8346 38.169 11.1484 37.6713 11.028 36.9341C11.0249 36.9149 11.0226 36.8955 11.0214 36.876C11.0178 36.7819 11.0169 36.6874 11.0156 36.59C11.0158 33.0131 12.7517 29.7222 15.5321 27.7093C15.6226 27.6428 15.7143 27.5781 15.8072 27.5152C15.8091 27.5149 15.8109 27.5137 15.8124 27.5114C16.097 27.3394 16.4133 27.2185 16.7575 27.1608C18.228 26.9146 19.6169 27.9217 19.8601 29.4105Z" fill="#009900"/>
</g>
</g>
</g>
<mask id="mask10_297_156948" style="mask-type:luminance" maskUnits="userSpaceOnUse" x="21" y="24" width="13" height="13">
<path fill-rule="evenodd" clip-rule="evenodd" d="M33.1618 24.1256L21.5684 24.962L22.3901 36.6407L33.9835 35.8045L33.1618 24.1256Z" fill="white"/>
</mask>
<g mask="url(#mask10_297_156948)">
<mask id="mask11_297_156948" style="mask-type:luminance" maskUnits="userSpaceOnUse" x="21" y="24" width="13" height="13">
<path fill-rule="evenodd" clip-rule="evenodd" d="M33.1618 24.1256L21.5684 24.962L22.3901 36.6407L33.9835 35.8045L33.1618 24.1256Z" fill="white"/>
</mask>
<g mask="url(#mask11_297_156948)">
<mask id="mask12_297_156948" style="mask-type:luminance" maskUnits="userSpaceOnUse" x="-6" y="-3" width="43" height="44">
<path fill-rule="evenodd" clip-rule="evenodd" d="M34.0861 -2.59058L-5.19629 0.243012L-2.39779 40.0157L36.8847 37.1821L34.0861 -2.59058Z" fill="white"/>
</mask>
<g mask="url(#mask12_297_156948)">
<path d="M22.5392 28.2232C22.5607 28.5291 22.6303 28.8196 22.7416 29.0865L22.7418 29.0894C22.8387 29.2757 22.938 29.4558 23.0459 29.6323C24.7765 32.5392 27.796 34.5396 31.2447 34.8762L31.2476 34.876C31.3504 34.8861 31.4532 34.8942 31.5557 34.9007C31.5693 34.9016 31.5828 34.9025 31.5964 34.9036L31.5993 34.9034L31.6223 34.9017C32.3585 34.8486 32.9113 34.2029 32.8589 33.4576C32.8575 33.4381 32.8552 33.4187 32.8519 33.3994C32.8338 33.3071 32.8129 33.215 32.7918 33.12C31.969 29.6414 29.5239 26.8503 26.3569 25.5483C26.2536 25.505 26.1496 25.4637 26.0447 25.4244C26.0428 25.4246 26.0409 25.4239 26.0388 25.4219C25.7225 25.3218 25.3871 25.2788 25.0391 25.3039C23.5524 25.4111 22.4332 26.718 22.5392 28.2232Z" fill="#009900"/>
</g>
</g>
</g>
</g>
</g>
<defs>
<clipPath id="clip0_297_156948">
<rect width="34" height="39" fill="white" transform="translate(0 0.5)"/>
</clipPath>
</defs>
</svg>
